<svg xmlns="http://www.w3.org/2000/svg" xmlns:xlink="http://www.w3.org/1999/xlink" width="61.964" height="48" viewBox="0 0 61.964 48">
  <defs>
    <clipPath id="clip-path">
      <rect id="Retângulo_42" data-name="Retângulo 42" width="61.964" height="48" fill="#fff"/>
    </clipPath>
  </defs>
  <g id="Discord-Logo-Black" clip-path="url(#clip-path)">
    <path id="Caminho_245" data-name="Caminho 245" d="M52.455,4.327A51.1,51.1,0,0,0,39.842.415a.191.191,0,0,0-.2.1,35.6,35.6,0,0,0-1.57,3.226,47.173,47.173,0,0,0-14.166,0A32.645,32.645,0,0,0,22.308.511a.2.2,0,0,0-.2-.1A50.955,50.955,0,0,0,9.493,4.327.18.18,0,0,0,9.41,4.4C1.377,16.4-.823,28.106.256,39.667a.213.213,0,0,0,.081.145,51.384,51.384,0,0,0,15.473,7.821.2.2,0,0,0,.217-.071,36.725,36.725,0,0,0,3.165-5.149.2.2,0,0,0-.107-.273,33.839,33.839,0,0,1-4.834-2.3.2.2,0,0,1-.02-.33c.325-.243.65-.5.96-.752a.192.192,0,0,1,.2-.027,36.644,36.644,0,0,0,31.14,0,.191.191,0,0,1,.2.025c.31.256.635.511.962.755a.2.2,0,0,1-.017.33,31.754,31.754,0,0,1-4.836,2.3.2.2,0,0,0-.1.275A41.235,41.235,0,0,0,45.9,47.559a.2.2,0,0,0,.217.074,51.213,51.213,0,0,0,15.5-7.821.2.2,0,0,0,.081-.143A51.952,51.952,0,0,0,52.535,4.4.158.158,0,0,0,52.455,4.327Zm-31.749,28.3c-3.053,0-5.569-2.8-5.569-6.245s2.467-6.245,5.569-6.245c3.126,0,5.617,2.828,5.569,6.245C26.275,29.824,23.808,32.627,20.706,32.627Zm20.589,0c-3.053,0-5.569-2.8-5.569-6.245s2.467-6.245,5.569-6.245c3.126,0,5.617,2.828,5.569,6.245C46.864,29.824,44.422,32.627,41.3,32.627Z" transform="translate(0 -0.052)" fill="#23272a"/>
  </g>
</svg>
