<svg id="pesquisa" xmlns="http://www.w3.org/2000/svg" width="47.383" height="47.383" viewBox="0 0 47.383 47.383">
  <path id="Caminho_241" data-name="Caminho 241" d="M10.5,154.106l-1.649,6.157-6.028.128a23.733,23.733,0,0,1-.174-22.123h0l5.367.984,2.351,5.335a14.139,14.139,0,0,0,.133,9.52Z" transform="translate(0 -125.472)" fill="#fbbb00"/>
  <path id="Caminho_242" data-name="Caminho 242" d="M284.385,208.176a23.682,23.682,0,0,1-8.445,22.9h0l-6.76-.345-.957-5.972a14.12,14.12,0,0,0,6.075-7.21H261.628v-9.372h22.757Z" transform="translate(-237.416 -188.91)" fill="#518ef8"/>
  <path id="Caminho_243" data-name="Caminho 243" d="M66.208,322.94h0a23.7,23.7,0,0,1-35.7-7.248l7.678-6.285a14.09,14.09,0,0,0,20.3,7.214Z" transform="translate(-27.686 -280.775)" fill="#28b446"/>
  <path id="Caminho_244" data-name="Caminho 244" d="M64.789,5.454l-7.675,6.283a14.088,14.088,0,0,0-20.77,7.377L28.625,12.8h0A23.7,23.7,0,0,1,64.789,5.454Z" transform="translate(-25.975)" fill="#f14336"/>
</svg>
