<svg xmlns="http://www.w3.org/2000/svg" xmlns:xlink="http://www.w3.org/1999/xlink" width="391.57" height="382.263" viewBox="0 0 391.57 382.263">
  <defs>
    <clipPath id="clip-path">
      <path id="Caminho_472" data-name="Caminho 472" d="M274.92,330.5V311H216.24v19.5A27.88,27.88,0,0,1,210,348l-2.57,3.18h76.28L281.15,348a27.83,27.83,0,0,1-6.23-17.5Z" fill="#fff" stroke="#263238" stroke-linecap="round" stroke-linejoin="round" stroke-width="1"/>
    </clipPath>
  </defs>
  <g id="Security_On-bro_1_" data-name="Security On-bro(1)" transform="translate(-52.13 -54.737)">
    <g id="freepik--background-simple--inject-2">
      <path id="Caminho_441" data-name="Caminho 441" d="M394.5,162s3.75-50.56-48.69-84.27-127.35-27.16-177.92-.94S124.82,162.9,108,201.29s-55.25,45-52.44,97.39,35.59,77.72,73,86.15,72.11-1.87,105.82,3.74,80.53,16.86,134.84-4.68,64.61-80.53,57.12-127.35S394.5,192.87,394.5,162Z" fill="#c2b5f7"/>
      <path id="Caminho_442" data-name="Caminho 442" d="M394.5,162s3.75-50.56-48.69-84.27-127.35-27.16-177.92-.94S124.82,162.9,108,201.29s-55.25,45-52.44,97.39,35.59,77.72,73,86.15,72.11-1.87,105.82,3.74,80.53,16.86,134.84-4.68,64.61-80.53,57.12-127.35S394.5,192.87,394.5,162Z" fill="#fff" opacity="0.7"/>
    </g>
    <g id="freepik--Device--inject-2">
      <path id="Caminho_443" data-name="Caminho 443" d="M344.1,361.12H151.32l15.22-14.69H328.88Z" fill="#fff" stroke="#263238" stroke-linecap="round" stroke-linejoin="round" stroke-width="1"/>
      <path id="Caminho_444" data-name="Caminho 444" d="M322.68,352.1c0,3-34.91,5.47-78,5.47s-78-2.45-78-5.47,34.91-5.48,78-5.48S322.68,349.07,322.68,352.1Z" fill="#c2b5f7"/>
      <path id="Caminho_445" data-name="Caminho 445" d="M322.68,352.1c0,3-34.91,5.47-78,5.47s-78-2.45-78-5.47,34.91-5.48,78-5.48S322.68,349.07,322.68,352.1Z" fill="#fff" opacity="0.5"/>
      <rect id="Retângulo_53" data-name="Retângulo 53" width="192.78" height="13.61" transform="translate(151.32 361.12)" fill="#263238" stroke="#263238" stroke-linecap="round" stroke-linejoin="round" stroke-width="1"/>
      <path id="Caminho_446" data-name="Caminho 446" d="M357.74,389.41H137.68l13.64-14.68H344.1Z" fill="#fff" stroke="#263238" stroke-linecap="round" stroke-linejoin="round" stroke-width="1"/>
      <rect id="Retângulo_54" data-name="Retângulo 54" width="219.98" height="14.32" transform="translate(137.72 389.41)" fill="#263238" stroke="#263238" stroke-linecap="round" stroke-linejoin="round" stroke-width="1"/>
      <path id="Caminho_447" data-name="Caminho 447" d="M245.58,215.93V124.4h34.83V85.89" fill="none" stroke="#263238" stroke-miterlimit="10" stroke-width="1"/>
      <line id="Linha_14" data-name="Linha 14" y1="38.08" transform="translate(259.19 85.89)" fill="none" stroke="#263238" stroke-miterlimit="10" stroke-width="1"/>
      <path id="Caminho_448" data-name="Caminho 448" d="M248.18,230.52H408.54v-22.8h30.65" fill="none" stroke="#263238" stroke-miterlimit="10" stroke-width="1"/>
      <path id="Caminho_449" data-name="Caminho 449" d="M240.32,229.73H87.83V205.37H54.82" fill="none" stroke="#263238" stroke-miterlimit="10" stroke-width="1"/>
      <path id="Caminho_450" data-name="Caminho 450" d="M214.38,61.52V96.11H194.73v22H219.1V192" fill="none" stroke="#263238" stroke-miterlimit="10" stroke-width="1"/>
      <path id="Caminho_451" data-name="Caminho 451" d="M322.07,163.7V114.18h13.36V92.96h11.01" fill="none" stroke="#263238" stroke-miterlimit="10" stroke-width="1"/>
      <path id="Caminho_452" data-name="Caminho 452" d="M160.15,158.99V121.26l-11.01-11.01V82.74" fill="none" stroke="#263238" stroke-miterlimit="10" stroke-width="1"/>
      <path id="Caminho_453" data-name="Caminho 453" d="M351.94,181h27.51V162.92h18.08V152.7h15.72" fill="none" stroke="#263238" stroke-miterlimit="10" stroke-width="1"/>
      <path id="Caminho_454" data-name="Caminho 454" d="M132.63,187.29H103.55v-22.8H62.68" fill="none" stroke="#263238" stroke-miterlimit="10" stroke-width="1"/>
      <path id="Caminho_455" data-name="Caminho 455" d="M159.36,310.69v20.44H146v22.8H107.48" fill="none" stroke="#263238" stroke-miterlimit="10" stroke-width="1"/>
      <path id="Caminho_456" data-name="Caminho 456" d="M306.35,313.84v21.22H337v-8.64h8.65v18.07h26.73" fill="none" stroke="#263238" stroke-miterlimit="10" stroke-width="1"/>
      <path id="Caminho_457" data-name="Caminho 457" d="M282.65,85.89A2.24,2.24,0,1,1,282,84.3,2.24,2.24,0,0,1,282.65,85.89Z" fill="#263238" stroke="#263238" stroke-linecap="round" stroke-linejoin="round" stroke-width="1"/>
      <path id="Caminho_458" data-name="Caminho 458" d="M261.51,85.89a2.24,2.24,0,1,1-.652-1.59,2.24,2.24,0,0,1,.652,1.59Z" fill="#263238" stroke="#263238" stroke-linecap="round" stroke-linejoin="round" stroke-width="1"/>
      <path id="Caminho_459" data-name="Caminho 459" d="M216.64,60.87a2.24,2.24,0,1,1-.653-1.59A2.25,2.25,0,0,1,216.64,60.87Z" fill="#263238" stroke="#263238" stroke-linecap="round" stroke-linejoin="round" stroke-width="1"/>
      <path id="Caminho_460" data-name="Caminho 460" d="M151.4,81.61a2.24,2.24,0,1,1-.653-1.59,2.24,2.24,0,0,1,.653,1.59Z" fill="#263238" stroke="#263238" stroke-linecap="round" stroke-linejoin="round" stroke-width="1"/>
      <path id="Caminho_461" data-name="Caminho 461" d="M64.92,164.49a2.25,2.25,0,1,1-2.24-2.24A2.25,2.25,0,0,1,64.92,164.49Z" fill="#263238" stroke="#263238" stroke-linecap="round" stroke-linejoin="round" stroke-width="1"/>
      <path id="Caminho_462" data-name="Caminho 462" d="M57.13,205.3a2.25,2.25,0,1,1-2.25-2.25A2.25,2.25,0,0,1,57.13,205.3Z" fill="#263238" stroke="#263238" stroke-linecap="round" stroke-linejoin="round" stroke-width="1"/>
      <path id="Caminho_463" data-name="Caminho 463" d="M109.92,353.5a2.24,2.24,0,1,1-.653-1.59A2.25,2.25,0,0,1,109.92,353.5Z" fill="#263238" stroke="#263238" stroke-linecap="round" stroke-linejoin="round" stroke-width="1"/>
      <path id="Caminho_464" data-name="Caminho 464" d="M375.76,344.05a2.24,2.24,0,1,1-.66-1.587,2.25,2.25,0,0,1,.66,1.587Z" fill="#263238" stroke="#263238" stroke-linecap="round" stroke-linejoin="round" stroke-width="1"/>
      <path id="Caminho_465" data-name="Caminho 465" d="M442.57,207.28a2.24,2.24,0,1,1-2.24-2.24A2.24,2.24,0,0,1,442.57,207.28Z" fill="#263238" stroke="#263238" stroke-linecap="round" stroke-linejoin="round" stroke-width="1"/>
      <path id="Caminho_466" data-name="Caminho 466" d="M416.55,152.22a2.24,2.24,0,1,1-2.24-2.24,2.24,2.24,0,0,1,2.24,2.24Z" fill="#263238" stroke="#263238" stroke-linecap="round" stroke-linejoin="round" stroke-width="1"/>
      <path id="Caminho_467" data-name="Caminho 467" d="M350.13,92.9a2.24,2.24,0,1,1-2.24-2.24A2.24,2.24,0,0,1,350.13,92.9Z" fill="#263238" stroke="#263238" stroke-linecap="round" stroke-linejoin="round" stroke-width="1"/>
      <path id="Caminho_468" data-name="Caminho 468" d="M274.92,330.5V311H216.24v19.5A27.88,27.88,0,0,1,210,348l-2.57,3.18h76.28L281.15,348a27.83,27.83,0,0,1-6.23-17.5Z" fill="#fff"/>
      <g id="Grupo_67" data-name="Grupo 67" clip-path="url(#clip-path)">
        <path id="Caminho_469" data-name="Caminho 469" d="M212.64,344.16h65.88a27.77,27.77,0,0,1-3.6-13.66V311H216.24v19.5a27.77,27.77,0,0,1-3.6,13.66Z" fill="#c2b5f7"/>
        <path id="Caminho_470" data-name="Caminho 470" d="M212.64,344.16h65.88a27.77,27.77,0,0,1-3.6-13.66V311H216.24v19.5a27.77,27.77,0,0,1-3.6,13.66Z" fill="#fff" opacity="0.3"/>
        <path id="Caminho_471" data-name="Caminho 471" d="M212.64,323.6h65.88a27.77,27.77,0,0,1-3.6-13.66v-19.5H216.24v19.5A27.77,27.77,0,0,1,212.64,323.6Z" fill="#263238"/>
      </g>
      <path id="Caminho_473" data-name="Caminho 473" d="M274.92,330.5V311H216.24v19.5A27.88,27.88,0,0,1,210,348l-2.57,3.18h76.28L281.15,348a27.83,27.83,0,0,1-6.23-17.5Z" fill="none" stroke="#263238" stroke-linecap="round" stroke-linejoin="round" stroke-width="1"/>
      <rect id="Retângulo_55" data-name="Retângulo 55" width="235.82" height="173.15" rx="8.48" transform="translate(127.67 143.99)" fill="#263238" stroke="#263238" stroke-linecap="round" stroke-linejoin="round" stroke-width="1"/>
      <path id="Caminho_474" data-name="Caminho 474" d="M127.67,290.23H363.49v18.43a8.48,8.48,0,0,1-8.48,8.48H136.15a8.48,8.48,0,0,1-8.48-8.48Z" fill="#fff" stroke="#263238" stroke-linecap="round" stroke-linejoin="round" stroke-width="1"/>
      <rect id="Retângulo_56" data-name="Retângulo 56" width="212.09" height="122.33" transform="translate(139.53 154.77)" fill="#fff" stroke="#263238" stroke-linecap="round" stroke-linejoin="round" stroke-width="1"/>
      <path id="Caminho_475" data-name="Caminho 475" d="M249.93,308a4.35,4.35,0,1,0-4.35,4.26,4.35,4.35,0,0,0,4.35-4.26Z" fill="#263238" stroke="#263238" stroke-linecap="round" stroke-linejoin="round" stroke-width="1"/>
      <rect id="Retângulo_57" data-name="Retângulo 57" width="76.29" height="3.48" transform="translate(207.44 351.21)" fill="#fff" stroke="#263238" stroke-linecap="round" stroke-linejoin="round" stroke-width="1"/>
      <path id="Caminho_476" data-name="Caminho 476" d="M245.9,148.42c-10.66,10-38,20-69.81,41.29,0,0,2,72,69.81,111.31Z" fill="#c2b5f7" stroke="#263238" stroke-linecap="round" stroke-linejoin="round" stroke-width="1"/>
      <path id="Caminho_477" data-name="Caminho 477" d="M245.9,148.42c10.67,10,38,20,69.82,41.29,0,0-2,72-69.82,111.31Z" fill="#263238" stroke="#263238" stroke-linecap="round" stroke-linejoin="round" stroke-width="1"/>
      <path id="Caminho_478" data-name="Caminho 478" d="M245.9,154.55c-12.9,8.94-35.19,17.45-64.69,37.19,0,0,1.85,66.7,64.69,103.16,62.85-36.46,64.7-103.16,64.7-103.16C281.1,172,258.88,163.49,245.9,154.55Z" fill="#263238" stroke="#263238" stroke-linecap="round" stroke-linejoin="round" stroke-width="1"/>
      <path id="Caminho_479" data-name="Caminho 479" d="M310.6,191.74c-29.5-19.73-51.72-28.25-64.7-37.19V294.9C308.75,258.44,310.6,191.74,310.6,191.74Z" fill="#c2b5f7" stroke="#263238" stroke-linecap="round" stroke-linejoin="round" stroke-width="1"/>
      <rect id="Retângulo_58" data-name="Retângulo 58" width="237.28" height="15.36" transform="translate(126.94 227.05)" fill="#263238" stroke="#263238" stroke-linecap="round" stroke-linejoin="round" stroke-width="1"/>
      <path id="Caminho_480" data-name="Caminho 480" d="M131.61,229.49a1.59,1.59,0,1,1-1.59-1.56,1.57,1.57,0,0,1,1.59,1.56Z" fill="#fff"/>
      <path id="Caminho_481" data-name="Caminho 481" d="M129.11,230.35a1.27,1.27,0,0,0,2.19-.86,1.22,1.22,0,0,0-.32-.81,18.373,18.373,0,0,0-1.87,1.67Z" fill="#263238"/>
      <path id="Caminho_482" data-name="Caminho 482" d="M137.85,229.49a1.6,1.6,0,1,1-1.6-1.56,1.58,1.58,0,0,1,1.6,1.56Z" fill="#fff"/>
      <path id="Caminho_483" data-name="Caminho 483" d="M135.34,230.35a1.27,1.27,0,0,0,2.19-.86,1.22,1.22,0,0,0-.32-.81,19.514,19.514,0,0,0-1.87,1.67Z" fill="#263238"/>
      <path id="Caminho_484" data-name="Caminho 484" d="M144.08,229.49a1.6,1.6,0,1,1-1.595-1.474,1.6,1.6,0,0,1,1.595,1.474Z" fill="#fff"/>
      <path id="Caminho_485" data-name="Caminho 485" d="M141.57,230.35a1.28,1.28,0,0,0,.92.39,1.26,1.26,0,0,0,1.27-1.25,1.18,1.18,0,0,0-.32-.81A19.514,19.514,0,0,0,141.57,230.35Z" fill="#263238"/>
      <path id="Caminho_486" data-name="Caminho 486" d="M150.31,229.49a1.59,1.59,0,1,1-1.59-1.56,1.57,1.57,0,0,1,1.59,1.56Z" fill="#fff"/>
      <path id="Caminho_487" data-name="Caminho 487" d="M147.8,230.35a1.28,1.28,0,0,0,2.2-.86,1.22,1.22,0,0,0-.32-.81A18.532,18.532,0,0,0,147.8,230.35Z" fill="#263238"/>
      <path id="Caminho_488" data-name="Caminho 488" d="M156.54,229.49a1.59,1.59,0,1,1-1.59-1.56,1.57,1.57,0,0,1,1.59,1.56Z" fill="#fff"/>
      <path id="Caminho_489" data-name="Caminho 489" d="M154,230.35a1.29,1.29,0,0,0,.92.39,1.26,1.26,0,0,0,1.28-1.25,1.22,1.22,0,0,0-.32-.81A19.68,19.68,0,0,0,154,230.35Z" fill="#263238"/>
      <path id="Caminho_490" data-name="Caminho 490" d="M162.77,229.49a1.59,1.59,0,1,1-1.59-1.56,1.57,1.57,0,0,1,1.59,1.56Z" fill="#fff"/>
      <path id="Caminho_491" data-name="Caminho 491" d="M160.27,230.35a1.27,1.27,0,0,0,2.19-.86,1.22,1.22,0,0,0-.32-.81,18.374,18.374,0,0,0-1.87,1.67Z" fill="#263238"/>
      <path id="Caminho_492" data-name="Caminho 492" d="M169,229.49a1.6,1.6,0,1,1-1.6-1.56,1.58,1.58,0,0,1,1.6,1.56Z" fill="#fff"/>
      <path id="Caminho_493" data-name="Caminho 493" d="M166.5,230.35a1.27,1.27,0,0,0,2.19-.86,1.22,1.22,0,0,0-.32-.81,19.514,19.514,0,0,0-1.87,1.67Z" fill="#263238"/>
      <path id="Caminho_494" data-name="Caminho 494" d="M175.24,229.49a1.59,1.59,0,1,1-1.59-1.56,1.57,1.57,0,0,1,1.59,1.56Z" fill="#fff"/>
      <path id="Caminho_495" data-name="Caminho 495" d="M172.73,230.35a1.28,1.28,0,0,0,.92.39,1.26,1.26,0,0,0,1.27-1.25,1.18,1.18,0,0,0-.32-.81A19.514,19.514,0,0,0,172.73,230.35Z" fill="#263238"/>
      <path id="Caminho_496" data-name="Caminho 496" d="M181.47,229.49a1.59,1.59,0,1,1-1.59-1.56,1.57,1.57,0,0,1,1.59,1.56Z" fill="#fff"/>
      <path id="Caminho_497" data-name="Caminho 497" d="M179,230.35a1.28,1.28,0,0,0,2.2-.86,1.22,1.22,0,0,0-.32-.81A19.68,19.68,0,0,0,179,230.35Z" fill="#263238"/>
      <path id="Caminho_498" data-name="Caminho 498" d="M187.7,229.49a1.59,1.59,0,1,1-1.59-1.56,1.57,1.57,0,0,1,1.59,1.56Z" fill="#fff"/>
      <path id="Caminho_499" data-name="Caminho 499" d="M185.19,230.35a1.29,1.29,0,0,0,.92.39,1.26,1.26,0,0,0,1.28-1.25,1.22,1.22,0,0,0-.32-.81,19.679,19.679,0,0,0-1.88,1.67Z" fill="#263238"/>
      <path id="Caminho_500" data-name="Caminho 500" d="M193.93,229.49a1.59,1.59,0,1,1-1.59-1.56,1.57,1.57,0,0,1,1.59,1.56Z" fill="#fff"/>
      <path id="Caminho_501" data-name="Caminho 501" d="M191.43,230.35a1.27,1.27,0,0,0,2.19-.86,1.22,1.22,0,0,0-.32-.81A19.512,19.512,0,0,0,191.43,230.35Z" fill="#263238"/>
      <path id="Caminho_502" data-name="Caminho 502" d="M200.17,229.49a1.6,1.6,0,1,1-1.59-1.56,1.57,1.57,0,0,1,1.59,1.56Z" fill="#fff"/>
      <path id="Caminho_503" data-name="Caminho 503" d="M197.66,230.35a1.27,1.27,0,0,0,2.19-.86,1.18,1.18,0,0,0-.32-.81,19.512,19.512,0,0,0-1.87,1.67Z" fill="#263238"/>
      <path id="Caminho_504" data-name="Caminho 504" d="M206.4,229.49a1.59,1.59,0,1,1-1.59-1.56,1.57,1.57,0,0,1,1.59,1.56Z" fill="#fff"/>
      <path id="Caminho_505" data-name="Caminho 505" d="M203.89,230.35a1.28,1.28,0,0,0,2.2-.86,1.22,1.22,0,0,0-.32-.81,18.525,18.525,0,0,0-1.88,1.67Z" fill="#263238"/>
      <path id="Caminho_506" data-name="Caminho 506" d="M212.63,229.49a1.59,1.59,0,1,1-1.59-1.56,1.57,1.57,0,0,1,1.59,1.56Z" fill="#fff"/>
      <path id="Caminho_507" data-name="Caminho 507" d="M210.12,230.35a1.29,1.29,0,0,0,.92.39,1.26,1.26,0,0,0,1.28-1.25,1.22,1.22,0,0,0-.32-.81,19.682,19.682,0,0,0-1.88,1.67Z" fill="#263238"/>
      <path id="Caminho_508" data-name="Caminho 508" d="M131.61,239.4a1.59,1.59,0,1,1-1.59-1.55,1.57,1.57,0,0,1,1.59,1.55Z" fill="#fff"/>
      <path id="Caminho_509" data-name="Caminho 509" d="M129.11,240.27a1.25,1.25,0,0,0,.91.39,1.27,1.27,0,0,0,1.28-1.26,1.22,1.22,0,0,0-.32-.8,18.373,18.373,0,0,0-1.87,1.67Z" fill="#263238"/>
      <path id="Caminho_510" data-name="Caminho 510" d="M137.85,239.4a1.6,1.6,0,1,1-1.6-1.55A1.58,1.58,0,0,1,137.85,239.4Z" fill="#fff"/>
      <path id="Caminho_511" data-name="Caminho 511" d="M135.34,240.27a1.25,1.25,0,0,0,.91.39,1.27,1.27,0,0,0,1.28-1.26,1.22,1.22,0,0,0-.32-.8,19.512,19.512,0,0,0-1.87,1.67Z" fill="#263238"/>
      <path id="Caminho_512" data-name="Caminho 512" d="M144.08,239.4a1.6,1.6,0,1,1-1.59-1.55,1.57,1.57,0,0,1,1.59,1.55Z" fill="#fff"/>
      <path id="Caminho_513" data-name="Caminho 513" d="M141.57,240.27a1.27,1.27,0,0,0,2.19-.87,1.17,1.17,0,0,0-.32-.8A19.514,19.514,0,0,0,141.57,240.27Z" fill="#263238"/>
      <path id="Caminho_514" data-name="Caminho 514" d="M150.31,239.4a1.59,1.59,0,1,1-1.59-1.55,1.57,1.57,0,0,1,1.59,1.55Z" fill="#fff"/>
      <path id="Caminho_515" data-name="Caminho 515" d="M147.8,240.27a1.28,1.28,0,0,0,2.2-.87,1.22,1.22,0,0,0-.32-.8A18.532,18.532,0,0,0,147.8,240.27Z" fill="#263238"/>
      <path id="Caminho_516" data-name="Caminho 516" d="M156.54,239.4a1.59,1.59,0,1,1-1.59-1.55,1.57,1.57,0,0,1,1.59,1.55Z" fill="#fff"/>
      <path id="Caminho_517" data-name="Caminho 517" d="M154,240.27a1.29,1.29,0,0,0,.92.39,1.27,1.27,0,0,0,1.28-1.26,1.22,1.22,0,0,0-.32-.8,19.68,19.68,0,0,0-1.88,1.67Z" fill="#263238"/>
      <path id="Caminho_518" data-name="Caminho 518" d="M162.77,239.4a1.59,1.59,0,1,1-1.59-1.55,1.57,1.57,0,0,1,1.59,1.55Z" fill="#fff"/>
      <path id="Caminho_519" data-name="Caminho 519" d="M160.27,240.27a1.25,1.25,0,0,0,.91.39,1.27,1.27,0,0,0,1.28-1.26,1.22,1.22,0,0,0-.32-.8,18.374,18.374,0,0,0-1.87,1.67Z" fill="#263238"/>
      <path id="Caminho_520" data-name="Caminho 520" d="M169,239.4a1.6,1.6,0,1,1-1.6-1.55,1.58,1.58,0,0,1,1.6,1.55Z" fill="#fff"/>
      <path id="Caminho_521" data-name="Caminho 521" d="M166.5,240.27a1.25,1.25,0,0,0,.91.39,1.27,1.27,0,0,0,1.28-1.26,1.22,1.22,0,0,0-.32-.8,19.509,19.509,0,0,0-1.87,1.67Z" fill="#263238"/>
      <path id="Caminho_522" data-name="Caminho 522" d="M175.24,239.4a1.59,1.59,0,1,1-1.59-1.55,1.57,1.57,0,0,1,1.59,1.55Z" fill="#fff"/>
      <path id="Caminho_523" data-name="Caminho 523" d="M172.73,240.27a1.27,1.27,0,0,0,2.19-.87,1.17,1.17,0,0,0-.32-.8A19.51,19.51,0,0,0,172.73,240.27Z" fill="#263238"/>
      <path id="Caminho_524" data-name="Caminho 524" d="M181.47,239.4a1.59,1.59,0,1,1-1.59-1.55,1.57,1.57,0,0,1,1.59,1.55Z" fill="#fff"/>
      <path id="Caminho_525" data-name="Caminho 525" d="M179,240.27a1.28,1.28,0,0,0,2.2-.87,1.22,1.22,0,0,0-.32-.8,19.678,19.678,0,0,0-1.88,1.67Z" fill="#263238"/>
      <path id="Caminho_526" data-name="Caminho 526" d="M187.7,239.4a1.59,1.59,0,1,1-1.59-1.55,1.57,1.57,0,0,1,1.59,1.55Z" fill="#fff"/>
      <path id="Caminho_527" data-name="Caminho 527" d="M185.19,240.27a1.29,1.29,0,0,0,.92.39,1.27,1.27,0,0,0,1.28-1.26,1.22,1.22,0,0,0-.32-.8,19.682,19.682,0,0,0-1.88,1.67Z" fill="#263238"/>
      <path id="Caminho_528" data-name="Caminho 528" d="M193.93,239.4a1.59,1.59,0,1,1-1.59-1.55,1.57,1.57,0,0,1,1.59,1.55Z" fill="#fff"/>
      <path id="Caminho_529" data-name="Caminho 529" d="M191.43,240.27a1.25,1.25,0,0,0,.91.39,1.27,1.27,0,0,0,1.28-1.26,1.22,1.22,0,0,0-.32-.8A19.512,19.512,0,0,0,191.43,240.27Z" fill="#263238"/>
      <path id="Caminho_530" data-name="Caminho 530" d="M200.17,239.4a1.6,1.6,0,1,1-1.59-1.55,1.57,1.57,0,0,1,1.59,1.55Z" fill="#fff"/>
      <path id="Caminho_531" data-name="Caminho 531" d="M197.66,240.27a1.27,1.27,0,0,0,2.19-.87,1.17,1.17,0,0,0-.32-.8,19.512,19.512,0,0,0-1.87,1.67Z" fill="#263238"/>
      <path id="Caminho_532" data-name="Caminho 532" d="M206.4,239.4a1.59,1.59,0,1,1-1.59-1.55,1.57,1.57,0,0,1,1.59,1.55Z" fill="#fff"/>
      <path id="Caminho_533" data-name="Caminho 533" d="M203.89,240.27a1.28,1.28,0,0,0,2.2-.87,1.22,1.22,0,0,0-.32-.8,18.525,18.525,0,0,0-1.88,1.67Z" fill="#263238"/>
      <path id="Caminho_534" data-name="Caminho 534" d="M212.63,239.4a1.59,1.59,0,1,1-1.59-1.55,1.57,1.57,0,0,1,1.59,1.55Z" fill="#fff"/>
      <path id="Caminho_535" data-name="Caminho 535" d="M210.12,240.27a1.29,1.29,0,0,0,.92.39,1.27,1.27,0,0,0,1.28-1.26,1.22,1.22,0,0,0-.32-.8,19.678,19.678,0,0,0-1.88,1.67Z" fill="#263238"/>
      <path id="Caminho_536" data-name="Caminho 536" d="M281.68,229.49a1.59,1.59,0,1,1-1.59-1.56,1.57,1.57,0,0,1,1.59,1.56Z" fill="#fff"/>
      <path id="Caminho_537" data-name="Caminho 537" d="M279.18,230.35a1.27,1.27,0,0,0,2.19-.86,1.22,1.22,0,0,0-.32-.81A19.508,19.508,0,0,0,279.18,230.35Z" fill="#263238"/>
      <path id="Caminho_538" data-name="Caminho 538" d="M287.92,229.49a1.6,1.6,0,1,1-1.59-1.56,1.57,1.57,0,0,1,1.59,1.56Z" fill="#fff"/>
      <path id="Caminho_539" data-name="Caminho 539" d="M285.41,230.35a1.27,1.27,0,0,0,2.19-.86,1.18,1.18,0,0,0-.32-.81,19.514,19.514,0,0,0-1.87,1.67Z" fill="#263238"/>
      <path id="Caminho_540" data-name="Caminho 540" d="M294.15,229.49a1.59,1.59,0,1,1-1.59-1.56,1.57,1.57,0,0,1,1.59,1.56Z" fill="#fff"/>
      <path id="Caminho_541" data-name="Caminho 541" d="M291.64,230.35a1.28,1.28,0,0,0,2.2-.86,1.22,1.22,0,0,0-.32-.81A18.522,18.522,0,0,0,291.64,230.35Z" fill="#263238"/>
      <path id="Caminho_542" data-name="Caminho 542" d="M300.38,229.49a1.59,1.59,0,1,1-1.59-1.56,1.57,1.57,0,0,1,1.59,1.56Z" fill="#fff"/>
      <path id="Caminho_543" data-name="Caminho 543" d="M297.87,230.35a1.29,1.29,0,0,0,.92.39,1.26,1.26,0,0,0,1.28-1.25,1.22,1.22,0,0,0-.32-.81,19.683,19.683,0,0,0-1.88,1.67Z" fill="#263238"/>
      <path id="Caminho_544" data-name="Caminho 544" d="M306.61,229.49a1.59,1.59,0,1,1-1.59-1.56,1.57,1.57,0,0,1,1.59,1.56Z" fill="#fff"/>
      <path id="Caminho_545" data-name="Caminho 545" d="M304.11,230.35a1.27,1.27,0,0,0,2.19-.86,1.22,1.22,0,0,0-.32-.81,18.374,18.374,0,0,0-1.87,1.67Z" fill="#263238"/>
      <path id="Caminho_546" data-name="Caminho 546" d="M312.85,229.49a1.6,1.6,0,1,1-1.6-1.56,1.58,1.58,0,0,1,1.6,1.56Z" fill="#fff"/>
      <path id="Caminho_547" data-name="Caminho 547" d="M310.34,230.35a1.27,1.27,0,0,0,2.19-.86,1.22,1.22,0,0,0-.32-.81A19.5,19.5,0,0,0,310.34,230.35Z" fill="#263238"/>
      <path id="Caminho_548" data-name="Caminho 548" d="M319.08,229.49a1.6,1.6,0,1,1-1.59-1.56,1.57,1.57,0,0,1,1.59,1.56Z" fill="#fff"/>
      <path id="Caminho_549" data-name="Caminho 549" d="M316.57,230.35a1.27,1.27,0,0,0,2.19-.86,1.18,1.18,0,0,0-.32-.81,19.509,19.509,0,0,0-1.87,1.67Z" fill="#263238"/>
      <path id="Caminho_550" data-name="Caminho 550" d="M325.31,229.49a1.59,1.59,0,1,1-1.59-1.56,1.57,1.57,0,0,1,1.59,1.56Z" fill="#fff"/>
      <path id="Caminho_551" data-name="Caminho 551" d="M322.8,230.35a1.28,1.28,0,0,0,2.2-.86,1.22,1.22,0,0,0-.32-.81A18.525,18.525,0,0,0,322.8,230.35Z" fill="#263238"/>
      <path id="Caminho_552" data-name="Caminho 552" d="M331.54,229.49a1.59,1.59,0,1,1-1.59-1.56,1.57,1.57,0,0,1,1.59,1.56Z" fill="#fff"/>
      <path id="Caminho_553" data-name="Caminho 553" d="M329,230.35a1.29,1.29,0,0,0,.92.39,1.26,1.26,0,0,0,1.28-1.25,1.22,1.22,0,0,0-.32-.81,19.676,19.676,0,0,0-1.88,1.67Z" fill="#263238"/>
      <path id="Caminho_554" data-name="Caminho 554" d="M337.77,229.49a1.59,1.59,0,1,1-1.59-1.56,1.57,1.57,0,0,1,1.59,1.56Z" fill="#fff"/>
      <path id="Caminho_555" data-name="Caminho 555" d="M335.27,230.35a1.27,1.27,0,0,0,2.19-.86,1.22,1.22,0,0,0-.32-.81,18.372,18.372,0,0,0-1.87,1.67Z" fill="#263238"/>
      <path id="Caminho_556" data-name="Caminho 556" d="M344,229.49a1.6,1.6,0,1,1-1.6-1.56,1.58,1.58,0,0,1,1.6,1.56Z" fill="#fff"/>
      <path id="Caminho_557" data-name="Caminho 557" d="M341.5,230.35a1.27,1.27,0,0,0,2.19-.86,1.22,1.22,0,0,0-.32-.81A19.508,19.508,0,0,0,341.5,230.35Z" fill="#263238"/>
      <path id="Caminho_558" data-name="Caminho 558" d="M350.24,229.49a1.59,1.59,0,1,1-1.59-1.56,1.57,1.57,0,0,1,1.59,1.56Z" fill="#fff"/>
      <path id="Caminho_559" data-name="Caminho 559" d="M347.73,230.35a1.28,1.28,0,0,0,.92.39,1.26,1.26,0,0,0,1.27-1.25,1.18,1.18,0,0,0-.32-.81,19.514,19.514,0,0,0-1.87,1.67Z" fill="#263238"/>
      <path id="Caminho_560" data-name="Caminho 560" d="M356.47,229.49a1.59,1.59,0,1,1-1.59-1.56,1.57,1.57,0,0,1,1.59,1.56Z" fill="#fff"/>
      <path id="Caminho_561" data-name="Caminho 561" d="M354,230.35a1.28,1.28,0,0,0,2.2-.86,1.22,1.22,0,0,0-.32-.81A19.678,19.678,0,0,0,354,230.35Z" fill="#263238"/>
      <path id="Caminho_562" data-name="Caminho 562" d="M362.7,229.49a1.59,1.59,0,1,1-1.59-1.56,1.57,1.57,0,0,1,1.59,1.56Z" fill="#fff"/>
      <path id="Caminho_563" data-name="Caminho 563" d="M360.19,230.35a1.29,1.29,0,0,0,.92.39,1.26,1.26,0,0,0,1.28-1.25,1.22,1.22,0,0,0-.32-.81A19.678,19.678,0,0,0,360.19,230.35Z" fill="#263238"/>
      <path id="Caminho_564" data-name="Caminho 564" d="M281.68,239.4a1.59,1.59,0,1,1-1.59-1.55,1.57,1.57,0,0,1,1.59,1.55Z" fill="#fff"/>
      <path id="Caminho_565" data-name="Caminho 565" d="M279.18,240.27a1.25,1.25,0,0,0,.91.39,1.27,1.27,0,0,0,1.28-1.26,1.22,1.22,0,0,0-.32-.8A19.51,19.51,0,0,0,279.18,240.27Z" fill="#263238"/>
      <path id="Caminho_566" data-name="Caminho 566" d="M287.92,239.4a1.6,1.6,0,1,1-1.59-1.55,1.57,1.57,0,0,1,1.59,1.55Z" fill="#fff"/>
      <path id="Caminho_567" data-name="Caminho 567" d="M285.41,240.27a1.27,1.27,0,0,0,2.19-.87,1.17,1.17,0,0,0-.32-.8A19.512,19.512,0,0,0,285.41,240.27Z" fill="#263238"/>
      <path id="Caminho_568" data-name="Caminho 568" d="M294.15,239.4a1.59,1.59,0,1,1-1.59-1.55,1.57,1.57,0,0,1,1.59,1.55Z" fill="#fff"/>
      <path id="Caminho_569" data-name="Caminho 569" d="M291.64,240.27a1.28,1.28,0,0,0,2.2-.87,1.22,1.22,0,0,0-.32-.8A18.522,18.522,0,0,0,291.64,240.27Z" fill="#263238"/>
      <path id="Caminho_570" data-name="Caminho 570" d="M300.38,239.4a1.59,1.59,0,1,1-1.59-1.55,1.57,1.57,0,0,1,1.59,1.55Z" fill="#fff"/>
      <path id="Caminho_571" data-name="Caminho 571" d="M297.87,240.27a1.29,1.29,0,0,0,.92.39,1.27,1.27,0,0,0,1.28-1.26,1.22,1.22,0,0,0-.32-.8,19.682,19.682,0,0,0-1.88,1.67Z" fill="#263238"/>
      <path id="Caminho_572" data-name="Caminho 572" d="M306.61,239.4a1.59,1.59,0,1,1-1.59-1.55,1.57,1.57,0,0,1,1.59,1.55Z" fill="#fff"/>
      <path id="Caminho_573" data-name="Caminho 573" d="M304.11,240.27a1.25,1.25,0,0,0,.91.39,1.27,1.27,0,0,0,1.28-1.26,1.22,1.22,0,0,0-.32-.8,18.376,18.376,0,0,0-1.87,1.67Z" fill="#263238"/>
      <path id="Caminho_574" data-name="Caminho 574" d="M312.85,239.4a1.6,1.6,0,1,1-1.6-1.55A1.58,1.58,0,0,1,312.85,239.4Z" fill="#fff"/>
      <path id="Caminho_575" data-name="Caminho 575" d="M310.34,240.27a1.25,1.25,0,0,0,.91.39,1.27,1.27,0,0,0,1.28-1.26,1.22,1.22,0,0,0-.32-.8,19.506,19.506,0,0,0-1.87,1.67Z" fill="#263238"/>
      <path id="Caminho_576" data-name="Caminho 576" d="M319.08,239.4a1.6,1.6,0,1,1-1.59-1.55,1.57,1.57,0,0,1,1.59,1.55Z" fill="#fff"/>
      <path id="Caminho_577" data-name="Caminho 577" d="M316.57,240.27a1.27,1.27,0,0,0,2.19-.87,1.17,1.17,0,0,0-.32-.8A19.51,19.51,0,0,0,316.57,240.27Z" fill="#263238"/>
      <path id="Caminho_578" data-name="Caminho 578" d="M325.31,239.4a1.59,1.59,0,1,1-1.59-1.55,1.57,1.57,0,0,1,1.59,1.55Z" fill="#fff"/>
      <path id="Caminho_579" data-name="Caminho 579" d="M322.8,240.27a1.28,1.28,0,0,0,2.2-.87,1.22,1.22,0,0,0-.32-.8,18.526,18.526,0,0,0-1.88,1.67Z" fill="#263238"/>
      <path id="Caminho_580" data-name="Caminho 580" d="M331.54,239.4a1.59,1.59,0,1,1-1.59-1.55,1.57,1.57,0,0,1,1.59,1.55Z" fill="#fff"/>
      <path id="Caminho_581" data-name="Caminho 581" d="M329,240.27a1.29,1.29,0,0,0,.92.39,1.27,1.27,0,0,0,1.28-1.26,1.22,1.22,0,0,0-.32-.8,19.678,19.678,0,0,0-1.88,1.67Z" fill="#263238"/>
      <path id="Caminho_582" data-name="Caminho 582" d="M337.77,239.4a1.59,1.59,0,1,1-1.59-1.55,1.57,1.57,0,0,1,1.59,1.55Z" fill="#fff"/>
      <path id="Caminho_583" data-name="Caminho 583" d="M335.27,240.27a1.25,1.25,0,0,0,.91.39,1.27,1.27,0,0,0,1.28-1.26,1.22,1.22,0,0,0-.32-.8,18.373,18.373,0,0,0-1.87,1.67Z" fill="#263238"/>
      <path id="Caminho_584" data-name="Caminho 584" d="M344,239.4a1.6,1.6,0,1,1-1.6-1.55A1.58,1.58,0,0,1,344,239.4Z" fill="#fff"/>
      <path id="Caminho_585" data-name="Caminho 585" d="M341.5,240.27a1.25,1.25,0,0,0,.91.39,1.27,1.27,0,0,0,1.28-1.26,1.22,1.22,0,0,0-.32-.8,19.508,19.508,0,0,0-1.87,1.67Z" fill="#263238"/>
      <path id="Caminho_586" data-name="Caminho 586" d="M350.24,239.4a1.59,1.59,0,1,1-1.59-1.55,1.57,1.57,0,0,1,1.59,1.55Z" fill="#fff"/>
      <path id="Caminho_587" data-name="Caminho 587" d="M347.73,240.27a1.27,1.27,0,0,0,2.19-.87,1.17,1.17,0,0,0-.32-.8,19.516,19.516,0,0,0-1.87,1.67Z" fill="#263238"/>
      <path id="Caminho_588" data-name="Caminho 588" d="M356.47,239.4a1.59,1.59,0,1,1-1.59-1.55,1.57,1.57,0,0,1,1.59,1.55Z" fill="#fff"/>
      <path id="Caminho_589" data-name="Caminho 589" d="M354,240.27a1.28,1.28,0,0,0,2.2-.87,1.22,1.22,0,0,0-.32-.8,19.68,19.68,0,0,0-1.88,1.67Z" fill="#263238"/>
      <path id="Caminho_590" data-name="Caminho 590" d="M362.7,239.4a1.59,1.59,0,1,1-1.59-1.55,1.57,1.57,0,0,1,1.59,1.55Z" fill="#fff"/>
      <path id="Caminho_591" data-name="Caminho 591" d="M360.19,240.27a1.29,1.29,0,0,0,.92.39,1.27,1.27,0,0,0,1.28-1.26,1.22,1.22,0,0,0-.32-.8,19.675,19.675,0,0,0-1.88,1.67Z" fill="#263238"/>
      <path id="Caminho_592" data-name="Caminho 592" d="M270.41,221.8H222.2a4,4,0,0,1-4-3.921V195.64c0-15.17,12.61-27.52,28.11-27.52s28.12,12.35,28.12,27.52v22.24a4,4,0,0,1-4.02,3.92ZM226.2,214h40.2V195.64a20.1,20.1,0,0,0-40.2,0Z" fill="#fff" stroke="#263238" stroke-linecap="round" stroke-linejoin="round" stroke-width="1"/>
      <rect id="Retângulo_59" data-name="Retângulo 59" width="61.38" height="50.78" transform="translate(215.21 211.08)" fill="#c2b5f7" stroke="#263238" stroke-linecap="round" stroke-linejoin="round" stroke-width="1"/>
      <path id="Caminho_593" data-name="Caminho 593" d="M252.29,232.17a6.69,6.69,0,0,0-13.37,0,6.53,6.53,0,0,0,3.51,5.76l-1.12,11.53h8.59l-1.12-11.53A6.53,6.53,0,0,0,252.29,232.17Z" fill="#263238" stroke="#263238" stroke-linecap="round" stroke-linejoin="round" stroke-width="1"/>
    </g>
    <g id="freepik--character-2--inject-2">
      <ellipse id="Elipse_28" data-name="Elipse 28" cx="47.5" cy="10.5" rx="47.5" ry="10.5" transform="translate(337 416)" fill="#c2b5f7"/>
      <ellipse id="Elipse_29" data-name="Elipse 29" cx="47.5" cy="10.5" rx="47.5" ry="10.5" transform="translate(337 416)" fill="#fff" opacity="0.5"/>
      <path id="Caminho_594" data-name="Caminho 594" d="M359.66,415.76s-11.52,6.48-11.52,9.6,7.11,1.2,11.76-1,8.34-3.84,8.34-8.16S359.66,415.76,359.66,415.76Z" fill="#c2b5f7" stroke="#263238" stroke-miterlimit="10" stroke-width="1"/>
      <path id="Caminho_595" data-name="Caminho 595" d="M414.81,415.76s11.52,6.48,11.52,9.6-7.11,1.2-11.76-1-8.34-3.84-8.34-8.16S414.81,415.76,414.81,415.76Z" fill="#c2b5f7" stroke="#263238" stroke-miterlimit="10" stroke-width="1"/>
      <path id="Caminho_596" data-name="Caminho 596" d="M364.32,309.69,359.41,417a6.52,6.52,0,0,0,4.91,1.44,6.41,6.41,0,0,0,3.92-2.16l16.67-87.59h3.43L406,417.92a8.119,8.119,0,0,0,3.43,1c1.71,0,4.41-2.16,4.41-2.16l-5.64-107Z" fill="#263238" stroke="#263238" stroke-miterlimit="10" stroke-width="1"/>
      <path id="Caminho_597" data-name="Caminho 597" d="M381.48,244.66l-22.31,9.11,5.88,51.84H407.7l7.85-53.76-24.27-7.67Z" fill="#c2b5f7" stroke="#263238" stroke-miterlimit="10" stroke-width="1"/>
      <path id="Caminho_598" data-name="Caminho 598" d="M383.93,252.09l2.69,4.32-4.41,37.2,5.39,7.92,4.66-8.64-3.68-36.96,3.19-5.03-4.66-2.04Z" fill="#263238" stroke="#263238" stroke-miterlimit="10" stroke-width="1"/>
      <path id="Caminho_599" data-name="Caminho 599" d="M387.11,248.86l-3.58,6.13-6.38-8.5,3.57-4.25Z" fill="#c2b5f7" stroke="#263238" stroke-miterlimit="10" stroke-width="1"/>
      <path id="Caminho_600" data-name="Caminho 600" d="M387.11,248.86l4.34,6.75,5.23-9.62-3.06-3.88Z" fill="#c2b5f7" stroke="#263238" stroke-miterlimit="10" stroke-width="1"/>
      <path id="Caminho_601" data-name="Caminho 601" d="M378.45,263.37H363.42v5.12l7.52,2.88,7.51-3.2Z" fill="#c2b5f7" stroke="#263238" stroke-miterlimit="10" stroke-width="1"/>
      <path id="Caminho_602" data-name="Caminho 602" d="M408.52,263.37H393.49v5.12l7.51,2.88,7.52-3.2Z" fill="#c2b5f7" stroke="#263238" stroke-miterlimit="10" stroke-width="1"/>
      <rect id="Retângulo_60" data-name="Retângulo 60" width="43.88" height="5.04" transform="translate(364.32 304.65)" fill="#263238" stroke="#263238" stroke-miterlimit="10" stroke-width="1"/>
      <path id="Caminho_603" data-name="Caminho 603" d="M363.58,308.73l-7.6,3.12a24.539,24.539,0,0,0,.49,6.48c.74,2.88,1.72,9.12,2.45,10.32s4.42,3.6,4.91,2.88,2.94-21.84,2.94-21.84Z" fill="#263238" stroke="#263238" stroke-miterlimit="10" stroke-width="1"/>
      <path id="Caminho_604" data-name="Caminho 604" d="M380.72,233.49v8.75l6.39,6.62,6.51-6.75v-8.75Z" fill="#fff" stroke="#263238" stroke-miterlimit="10" stroke-width="1"/>
      <path id="Caminho_605" data-name="Caminho 605" d="M376.26,225.37s-1.15-2.63-1.92-1,.13,4.12,1.28,5.12a4.11,4.11,0,0,0,2.93.75l-.64-3.75Z" fill="#fff" stroke="#263238" stroke-miterlimit="10" stroke-width="1"/>
      <path id="Caminho_606" data-name="Caminho 606" d="M397.06,225.37s1.15-2.63,1.92-1-.13,4.12-1.28,5.12a4.13,4.13,0,0,1-2.94.75l.64-3.75Z" fill="#fff" stroke="#263238" stroke-miterlimit="10" stroke-width="1"/>
      <path id="Caminho_607" data-name="Caminho 607" d="M378.43,208s-5.37,2.25-5.37,6,.77,8,2.05,9.63,2.29,2.75,2.29,2.75l.26-5.38,3.7-6.37s6.13,3.87,9.19,3.87a31.6,31.6,0,0,0,5.11-.37l1.15,6.37,1.66-4.62v-4.25s3.06-2.88,2.42-4.75-11-7.75-17.36-6.25S378.43,208,378.43,208Z" fill="#263238" stroke="#263238" stroke-miterlimit="10" stroke-width="1"/>
      <path id="Caminho_608" data-name="Caminho 608" d="M375.87,220.62s1.53,9.37,2.81,11.87a34.739,34.739,0,0,0,6.13,7.5c.89.62,4.21.12,5.49.12s5-7.5,5.61-8.87,1-13.12,1-13.12L395.79,216s-5.49,1.38-9.83-.37a15,15,0,0,1-6.13-4.13s-.38,4.25-1.92,6.75S375.87,220.62,375.87,220.62Z" fill="#fff" stroke="#263238" stroke-miterlimit="10" stroke-width="1"/>
      <path id="Caminho_609" data-name="Caminho 609" d="M385.7,221.62a11,11,0,0,0-5-1.25,9.41,9.41,0,0,0-4.34.87s0,4.25,1.41,5.88,5.49,1.12,6.64-.25S385.7,221.62,385.7,221.62Z" fill="#263238" stroke="#263238" stroke-miterlimit="10" stroke-width="1"/>
      <path id="Caminho_610" data-name="Caminho 610" d="M387.49,221.62a11,11,0,0,1,5-1.25,9.41,9.41,0,0,1,4.34.87s0,4.25-1.41,5.88-5.49,1.12-6.63-.25S387.49,221.62,387.49,221.62Z" fill="#263238" stroke="#263238" stroke-miterlimit="10" stroke-width="1"/>
      <line id="Linha_15" data-name="Linha 15" x2="1.79" transform="translate(385.7 221.62)" fill="#fff" stroke="#263238" stroke-miterlimit="10" stroke-width="1"/>
      <path id="Caminho_611" data-name="Caminho 611" d="M359.41,300.81l8.09-.24,6.13,5.52a3,3,0,0,1-.73,1.92c-.74.72-2.7.24-2.7.24s-1.47,3.6-4.17,3.6-10-5-10-5Z" fill="#fff" stroke="#263238" stroke-miterlimit="10" stroke-width="1"/>
      <path id="Caminho_612" data-name="Caminho 612" d="M359.17,253.77l-27.21,35.76,24.02,17.28,3.43-6-7.35-14.16,10.05-9.12Z" fill="#c2b5f7" stroke="#263238" stroke-miterlimit="10" stroke-width="1"/>
      <line id="Linha_16" data-name="Linha 16" x1="4.16" y2="7.44" transform="translate(353.29 296.73)" fill="none" stroke="#263238" stroke-linecap="round" stroke-linejoin="round" stroke-width="1"/>
      <line id="Linha_17" data-name="Linha 17" x1="3.19" y1="8.16" transform="translate(348.87 278.49)" fill="none" stroke="#263238" stroke-linecap="round" stroke-linejoin="round" stroke-width="1"/>
      <path id="Caminho_613" data-name="Caminho 613" d="M415.55,300.81l-8.09-.24-6.13,5.52a3,3,0,0,0,.74,1.92c.73.72,2.69.24,2.69.24s1.47,3.6,4.17,3.6,10.05-5,10.05-5Z" fill="#fff" stroke="#263238" stroke-miterlimit="10" stroke-width="1"/>
      <path id="Caminho_614" data-name="Caminho 614" d="M415.55,251.85,443,289.53l-24.02,17.28-3.43-6,7.35-14.16-11.52-9.36Z" fill="#c2b5f7" stroke="#263238" stroke-miterlimit="10" stroke-width="1"/>
      <line id="Linha_18" data-name="Linha 18" x2="4.16" y2="7.44" transform="translate(417.51 296.73)" fill="none" stroke="#263238" stroke-linecap="round" stroke-linejoin="round" stroke-width="1"/>
      <line id="Linha_19" data-name="Linha 19" y1="8.16" x2="3.19" transform="translate(422.9 278.49)" fill="none" stroke="#263238" stroke-linecap="round" stroke-linejoin="round" stroke-width="1"/>
    </g>
    <g id="freepik--character-1--inject-2">
      <ellipse id="Elipse_30" data-name="Elipse 30" cx="47.5" cy="10.5" rx="47.5" ry="10.5" transform="translate(59 416)" fill="#c2b5f7"/>
      <ellipse id="Elipse_31" data-name="Elipse 31" cx="47.5" cy="10.5" rx="47.5" ry="10.5" transform="translate(59 416)" fill="#fff" opacity="0.5"/>
      <path id="Caminho_615" data-name="Caminho 615" d="M81.82,415.76s-11.52,6.48-11.52,9.6,7.11,1.2,11.77-1,8.33-3.84,8.33-8.16S81.82,415.76,81.82,415.76Z" fill="#c2b5f7" stroke="#263238" stroke-miterlimit="10" stroke-width="1"/>
      <path id="Caminho_616" data-name="Caminho 616" d="M137,415.76s11.52,6.48,11.52,9.6-7.1,1.2-11.76-1-8.34-3.84-8.34-8.16S137,415.76,137,415.76Z" fill="#c2b5f7" stroke="#263238" stroke-miterlimit="10" stroke-width="1"/>
      <path id="Caminho_617" data-name="Caminho 617" d="M86.48,309.69,81.58,417a6.49,6.49,0,0,0,4.9,1.44,6.41,6.41,0,0,0,3.92-2.16l16.67-87.59h3.43l17.65,89.27a8.12,8.12,0,0,0,3.43,1c1.72,0,4.41-2.16,4.41-2.16l-5.64-107Z" fill="#263238" stroke="#263238" stroke-miterlimit="10" stroke-width="1"/>
      <path id="Caminho_618" data-name="Caminho 618" d="M103.64,244.66l-22.31,9.11,5.88,51.84h42.66l7.84-53.76-24.27-7.67Z" fill="#c2b5f7" stroke="#263238" stroke-miterlimit="10" stroke-width="1"/>
      <rect id="Retângulo_61" data-name="Retângulo 61" width="43.88" height="5.04" transform="translate(86.48 304.65)" fill="#263238" stroke="#263238" stroke-miterlimit="10" stroke-width="1"/>
      <path id="Caminho_619" data-name="Caminho 619" d="M85.74,308.73l-7.6,3.12a24.54,24.54,0,0,0,.49,6.48c.74,2.88,1.72,9.12,2.46,10.32s4.41,3.6,4.9,2.88,2.94-21.84,2.94-21.84Z" fill="#263238" stroke="#263238" stroke-miterlimit="10" stroke-width="1"/>
      <path id="Caminho_620" data-name="Caminho 620" d="M102.89,233.49v8.75l6.38,6.62,6.51-6.75v-8.75Z" fill="#fff" stroke="#263238" stroke-miterlimit="10" stroke-width="1"/>
      <path id="Caminho_621" data-name="Caminho 621" d="M98.42,225.37s-1.15-2.63-1.92-1,.13,4.12,1.28,5.12a4.13,4.13,0,0,0,2.94.75l-.64-3.75Z" fill="#fff" stroke="#263238" stroke-miterlimit="10" stroke-width="1"/>
      <path id="Caminho_622" data-name="Caminho 622" d="M119.22,225.37s1.15-2.63,1.92-1-.13,4.12-1.28,5.12a4.11,4.11,0,0,1-2.93.75l.63-3.75Z" fill="#fff" stroke="#263238" stroke-miterlimit="10" stroke-width="1"/>
      <path id="Caminho_623" data-name="Caminho 623" d="M100.59,208s-5.36,2.25-5.36,6,.76,8,2,9.63,2.3,2.75,2.3,2.75l.25-5.38,3.7-6.37s6.13,3.87,9.19,3.87a31.6,31.6,0,0,0,5.11-.37l1.15,6.37,1.66-4.62v-4.25s3.06-2.88,2.42-4.75-11-7.75-17.36-6.25S100.59,208,100.59,208Z" fill="#263238" stroke="#263238" stroke-miterlimit="10" stroke-width="1"/>
      <path id="Caminho_624" data-name="Caminho 624" d="M98,220.62s1.54,9.37,2.81,11.87A35,35,0,0,0,107,240c.89.62,4.21.12,5.49.12s5-7.5,5.62-8.87,1-13.12,1-13.12L118,216s-5.49,1.38-9.83-.37a15,15,0,0,1-6.13-4.13s-.38,4.25-1.91,6.75S98,220.62,98,220.62Z" fill="#fff" stroke="#263238" stroke-miterlimit="10" stroke-width="1"/>
      <path id="Caminho_625" data-name="Caminho 625" d="M107.86,221.62a11,11,0,0,0-5-1.25,9.41,9.41,0,0,0-4.34.87s0,4.25,1.4,5.88,5.49,1.12,6.64-.25S107.86,221.62,107.86,221.62Z" fill="#263238" stroke="#263238" stroke-miterlimit="10" stroke-width="1"/>
      <path id="Caminho_626" data-name="Caminho 626" d="M109.65,221.62a11,11,0,0,1,5-1.25,9.41,9.41,0,0,1,4.34.87s0,4.25-1.41,5.88-5.48,1.12-6.63-.25S109.65,221.62,109.65,221.62Z" fill="#263238" stroke="#263238" stroke-miterlimit="10" stroke-width="1"/>
      <line id="Linha_20" data-name="Linha 20" x2="1.79" transform="translate(107.86 221.62)" fill="#fff" stroke="#263238" stroke-miterlimit="10" stroke-width="1"/>
      <path id="Caminho_627" data-name="Caminho 627" d="M106.09,252.09l2.69,4.32-4.41,37.2,5.4,7.92,4.65-8.64-3.67-36.96,3.18-5.03-4.66-2.04Z" fill="#263238" stroke="#263238" stroke-miterlimit="10" stroke-width="1"/>
      <path id="Caminho_628" data-name="Caminho 628" d="M109.27,248.86l-3.58,6.13-6.38-8.5,3.58-4.25Z" fill="#c2b5f7" stroke="#263238" stroke-miterlimit="10" stroke-width="1"/>
      <path id="Caminho_629" data-name="Caminho 629" d="M109.27,248.86l4.34,6.75,5.23-9.62-3.06-3.88Z" fill="#c2b5f7" stroke="#263238" stroke-miterlimit="10" stroke-width="1"/>
      <path id="Caminho_630" data-name="Caminho 630" d="M81.33,253.77,54.12,289.53l24.02,17.28,3.44-6-7.36-14.16,10.05-9.12Z" fill="#c2b5f7" stroke="#263238" stroke-miterlimit="10" stroke-width="1"/>
      <path id="Caminho_631" data-name="Caminho 631" d="M81.58,300.81l8.08-.24,6.13,5.52a3,3,0,0,1-.73,1.92c-.74.72-2.7.24-2.7.24s-1.47,3.6-4.17,3.6-10-5-10-5Z" fill="#fff" stroke="#263238" stroke-miterlimit="10" stroke-width="1"/>
      <line id="Linha_21" data-name="Linha 21" x1="4.17" y2="7.44" transform="translate(75.45 296.73)" fill="none" stroke="#263238" stroke-linecap="round" stroke-linejoin="round" stroke-width="1"/>
      <line id="Linha_22" data-name="Linha 22" x1="3.18" y1="8.16" transform="translate(71.04 278.49)" fill="none" stroke="#263238" stroke-linecap="round" stroke-linejoin="round" stroke-width="1"/>
      <path id="Caminho_632" data-name="Caminho 632" d="M137.71,251.85l27.45,37.68-24.02,17.28-3.43-6,7.35-14.16-11.52-9.36Z" fill="#c2b5f7" stroke="#263238" stroke-miterlimit="10" stroke-width="1"/>
      <path id="Caminho_633" data-name="Caminho 633" d="M137.71,300.81l-8.09-.24-6.13,5.52a3,3,0,0,0,.74,1.92c.73.72,2.69.24,2.69.24s1.47,3.6,4.17,3.6,10-5,10-5Z" fill="#fff" stroke="#263238" stroke-miterlimit="10" stroke-width="1"/>
      <line id="Linha_23" data-name="Linha 23" x2="4.17" y2="7.44" transform="translate(139.67 296.73)" fill="none" stroke="#263238" stroke-linecap="round" stroke-linejoin="round" stroke-width="1"/>
      <line id="Linha_24" data-name="Linha 24" y1="8.16" x2="3.19" transform="translate(145.06 278.49)" fill="none" stroke="#263238" stroke-linecap="round" stroke-linejoin="round" stroke-width="1"/>
      <path id="Caminho_634" data-name="Caminho 634" d="M100.61,263.37H85.58v5.12l7.52,2.88,7.51-3.2Z" fill="#c2b5f7" stroke="#263238" stroke-miterlimit="10" stroke-width="1"/>
      <path id="Caminho_635" data-name="Caminho 635" d="M130.68,263.37H115.65v5.12l7.52,2.88,7.51-3.2Z" fill="#c2b5f7" stroke="#263238" stroke-miterlimit="10" stroke-width="1"/>
    </g>
  </g>
</svg>
